<svg xmlns="http://www.w3.org/2000/svg" width="58.37" height="62.59" viewBox="0 0 58.37 62.59">
  <g id="アートワーク_1" data-name="アートワーク 1" transform="translate(1.003 1)">
    <g id="グループ_2" data-name="グループ 2" transform="translate(0 0)">
      <path id="パス_2" data-name="パス 2" d="M46.09,19.318c2.818-1.268,5.213-6.481,3.241-10.568A9.018,9.018,0,0,0,43.554,4.1,9.159,9.159,0,0,0,35.8,5.509a8.454,8.454,0,0,0-12.258-.986A8.454,8.454,0,0,0,16.5,1c-2.4,0-9.3,1.268-8.454,9.863A8.454,8.454,0,0,0,1,19.318a7.89,7.89,0,0,0,4.227,7.327V40.453A4.227,4.227,0,0,0,9.456,44.68h0a4.227,4.227,0,0,0,4.227-4.227V26.363a7.045,7.045,0,0,1,7.045-7.045H46.09V58.77a2.818,2.818,0,0,1-2.818,2.818h-31A2.818,2.818,0,0,1,9.456,58.77V44.68" transform="translate(-0.995 -0.999)" fill="none" stroke="#000" stroke-miterlimit="10" stroke-width="2"/>
      <line id="線_1" data-name="線 1" y2="24" transform="translate(20 28.098)" fill="none" stroke="#000" stroke-miterlimit="10" stroke-width="2"/>
      <line id="線_2" data-name="線 2" y2="24" transform="translate(28 28.098)" fill="none" stroke="#000" stroke-miterlimit="10" stroke-width="2"/>
      <line id="線_3" data-name="線 3" y2="24" transform="translate(37 28.098)" fill="none" stroke="#000" stroke-miterlimit="10" stroke-width="2"/>
      <path id="パス_3" data-name="パス 3" d="M26.214,4.2A6.622,6.622,0,0,0,24.1,8.145" transform="translate(8.455 0.311)" fill="none" stroke="#000" stroke-miterlimit="10" stroke-width="2"/>
      <path id="パス_4" data-name="パス 4" d="M6,8a7.045,7.045,0,0,1,4.227,1.409" transform="translate(1.052 1.865)" fill="none" stroke="#000" stroke-miterlimit="10" stroke-width="2"/>
      <path id="パス_5" data-name="パス 5" d="M41.313,39.458l-4.368,4.368a4.227,4.227,0,0,1-2.959,1.268H33V21h7.045a4.227,4.227,0,0,1,4.227,4.227v7.186a9.864,9.864,0,0,1-2.96,7.046Z" transform="translate(12.095 7.182)" fill="none" stroke="#000" stroke-miterlimit="10" stroke-width="2"/>
    </g>
  </g>
</svg>
