<svg xmlns="http://www.w3.org/2000/svg" width="31.698" height="60.474" viewBox="0 0 31.698 60.474">
  <g id="アートワーク_12" data-name="アートワーク 12" transform="translate(1.053 1)">
    <g id="グループ_14" data-name="グループ 14" transform="translate(0 0)">
      <path id="パス_43" data-name="パス 43" d="M16.968,25.695,12.6,21.609,17.109,17.1l4.086,4.368Z" transform="translate(3.604 5.585)" fill="none" stroke="#000" stroke-miterlimit="10" stroke-width="2"/>
      <path id="パス_44" data-name="パス 44" d="M7.9,11.154,13.536,8.9l2.254,5.5L10.154,16.65Z" transform="translate(1.681 2.231)" fill="none" stroke="#000" stroke-miterlimit="10" stroke-width="2"/>
      <path id="パス_45" data-name="パス 45" d="M5.9,29.154,11.536,26.9l2.254,5.5-5.636,2.4Z" transform="translate(0.863 9.593)" fill="none" stroke="#000" stroke-miterlimit="10" stroke-width="2"/>
      <path id="パス_46" data-name="パス 46" d="M15.24,38.863H12.281c-8.454,0-8.172-2.114-9.581-3.663" transform="translate(-0.446 12.988)" fill="none" stroke="#000" stroke-miterlimit="10" stroke-width="2"/>
      <path id="パス_47" data-name="パス 47" d="M15.895,59.474H26.18a1.55,1.55,0,0,0,1.409-1.268L30.689,1H1.1L4.059,58.206a1.55,1.55,0,0,0,1.409,1.268Z" transform="translate(-1.1 -1)" fill="none" stroke="#000" stroke-miterlimit="10" stroke-width="2"/>
      <path id="パス_48" data-name="パス 48" d="M11.6,38.863h2.959c8.454,0,8.172-2.114,9.581-3.663" transform="translate(3.195 12.988)" fill="none" stroke="#000" stroke-miterlimit="10" stroke-width="2"/>
      <line id="線_45" data-name="線 45" x2="7.327" transform="translate(0.705 13.104)" fill="none" stroke="#000" stroke-miterlimit="10" stroke-width="2"/>
      <line id="線_46" data-name="線 46" x2="10.286" transform="translate(18.458 13.104)" fill="none" stroke="#000" stroke-miterlimit="10" stroke-width="2"/>
    </g>
  </g>
</svg>
