<svg xmlns="http://www.w3.org/2000/svg" width="37.225" height="59.769" viewBox="0 0 37.225 59.769">
  <g id="アートワーク_5" data-name="アートワーク 5" transform="translate(1 1)">
    <g id="グループ_9" data-name="グループ 9" transform="translate(0 0)">
      <path id="パス_24" data-name="パス 24" d="M8,12.9H33.362V57.988a2.818,2.818,0,0,1-2.818,2.818H10.818A2.818,2.818,0,0,1,8,57.988V12.9Z" transform="translate(1.863 -3.037)" fill="none" stroke="#000" stroke-miterlimit="10" stroke-width="2"/>
      <line id="線_23" data-name="線 23" x2="25.362" transform="translate(9.863 25.362)" fill="none" stroke="#000" stroke-miterlimit="10" stroke-width="2"/>
      <line id="線_24" data-name="線 24" y2="2.818" transform="translate(15.499 35.225)" fill="none" stroke="#000" stroke-miterlimit="10" stroke-width="2"/>
      <line id="線_25" data-name="線 25" y2="2.818" transform="translate(21.135 30.998)" fill="none" stroke="#000" stroke-miterlimit="10" stroke-width="2"/>
      <line id="線_26" data-name="線 26" y2="2.818" transform="translate(18.317 42.27)" fill="none" stroke="#000" stroke-miterlimit="10" stroke-width="2"/>
      <path id="パス_25" data-name="パス 25" d="M10.863,25.626a9.863,9.863,0,1,1,9.863-9.863" transform="translate(-1 -5.9)" fill="none" stroke="#000" stroke-miterlimit="10" stroke-width="2"/>
      <path id="パス_26" data-name="パス 26" d="M16.622,14.9A9.863,9.863,0,0,1,10,21.522" transform="translate(2.681 -2.219)" fill="none" stroke="#000" stroke-miterlimit="10" stroke-width="2"/>
    </g>
  </g>
</svg>
