<svg xmlns="http://www.w3.org/2000/svg" width="47.747" height="66.814" viewBox="0 0 47.747 66.814">
  <g id="アートワーク_8" data-name="アートワーク 8" transform="translate(1.653 1)">
    <g id="グループ_10" data-name="グループ 10" transform="translate(0 0)">
      <path id="パス_27" data-name="パス 27" d="M22.79,11H35.471v1.409C32.23,16.5,31.808,18.89,32.794,22.554s4.086,5.636,4.086,10.99a14.09,14.09,0,0,1-28.18,0c0-5.354,2.959-7.468,4.086-10.99s.564-6.059-2.677-10.145V11Z" transform="translate(1.163 3.09)" fill="none" stroke="#000" stroke-linecap="round" stroke-miterlimit="10" stroke-width="2"/>
      <line id="線_27" data-name="線 27" y2="14.09" transform="translate(23.953 50.724)" fill="none" stroke="#000" stroke-linecap="round" stroke-miterlimit="10" stroke-width="2"/>
      <line id="線_28" data-name="線 28" x1="14.09" transform="translate(16.908 64.814)" fill="none" stroke="#000" stroke-miterlimit="10" stroke-width="2"/>
      <path id="パス_28" data-name="パス 28" d="M1.7,17.908,5.927,1H24.244Z" transform="translate(-1.7 -1)" fill="none" stroke="#000" stroke-linecap="round" stroke-miterlimit="10" stroke-width="2"/>
      <line id="線_29" data-name="線 29" x2="5.636" y2="5.636" transform="translate(11.272 8.454)" fill="none" stroke="#000" stroke-linecap="round" stroke-miterlimit="10" stroke-width="2"/>
      <path id="パス_29" data-name="パス 29" d="M30.972,23.6A9.863,9.863,0,1,0,19.7,13.875" transform="translate(5.662 0.215)" fill="none" stroke="#000" stroke-miterlimit="10" stroke-width="2"/>
      <path id="パス_30" data-name="パス 30" d="M19.9,13a9.863,9.863,0,0,0,5.213,6.059" transform="translate(5.744 3.908)" fill="none" stroke="#000" stroke-miterlimit="10" stroke-width="2"/>
      <line id="線_30" data-name="線 30" x2="18.317" transform="translate(16.908 28.18)" fill="none" stroke="#000" stroke-miterlimit="10" stroke-width="2"/>
      <line id="線_31" data-name="線 31" y2="2.818" transform="translate(19.726 36.634)" fill="none" stroke="#000" stroke-miterlimit="10" stroke-width="2"/>
      <line id="線_32" data-name="線 32" y2="2.818" transform="translate(26.771 33.816)" fill="none" stroke="#000" stroke-miterlimit="10" stroke-width="2"/>
      <line id="線_33" data-name="線 33" y2="2.818" transform="translate(25.362 42.27)" fill="none" stroke="#000" stroke-miterlimit="10" stroke-width="2"/>
    </g>
  </g>
</svg>
