<svg xmlns="http://www.w3.org/2000/svg" width="19.427" height="18.821" viewBox="0 0 19.427 18.821">
  <g id="アートワーク_14" data-name="アートワーク 14" transform="translate(9.713 9.411)">
    <g id="グループ_30" data-name="グループ 30" transform="translate(-9.713 -9.411)">
      <path id="パス_76" data-name="パス 76" d="M0,1.783V12.959a1.783,1.783,0,0,0,1.783,1.783H7.628l6.639,4.041a.274.274,0,0,0,.383-.359L12.74,14.739h4.9a1.783,1.783,0,0,0,1.783-1.783V1.783A1.783,1.783,0,0,0,17.644,0H1.783A1.783,1.783,0,0,0,0,1.783Zm1.362,0a.424.424,0,0,1,.421-.421H17.644a.424.424,0,0,1,.417.417v11.18a.424.424,0,0,1-.417.417H10.5l1.146,2.214L8.007,13.377H1.783a.424.424,0,0,1-.417-.417Z"/>
      <g id="グループ_29" data-name="グループ 29" transform="translate(3.824 3.159)">
        <path id="パス_77" data-name="パス 77" d="M112.587,93.973a.837.837,0,0,1,0-1.673h9.01a.837.837,0,0,1,0,1.673Z" transform="translate(-111.75 -92.3)"/>
        <path id="パス_78" data-name="パス 78" d="M112.587,192.673a.837.837,0,1,1,0-1.673h10.1a.837.837,0,1,1,0,1.673Z" transform="translate(-111.75 -187.622)"/>
        <path id="パス_79" data-name="パス 79" d="M112.587,291.173a.837.837,0,1,1,0-1.673h6.943a.837.837,0,1,1,0,1.673Z" transform="translate(-111.75 -282.752)"/>
      </g>
    </g>
  </g>
</svg>
