<svg xmlns="http://www.w3.org/2000/svg" width="35.816" height="66.814" viewBox="0 0 35.816 66.814">
  <g id="アートワーク_11" data-name="アートワーク 11" transform="translate(1 1)">
    <g id="グループ_13" data-name="グループ 13" transform="translate(0 0)">
      <path id="パス_40" data-name="パス 40" d="M9.5,27.771a7.89,7.89,0,0,1,2.536-3.523c1.691-1.55,3.8-2.536,3.8-4.932V2.409A1.409,1.409,0,0,1,17.25,1h5.636a1.409,1.409,0,0,1,1.409,1.409V19.317c0,2.4,2.114,3.382,3.945,4.932s3.1,4.368,3.1,9.159V63a2.818,2.818,0,0,1-2.818,2.818H14.432" transform="translate(2.477 -1)" fill="none" stroke="#000" stroke-miterlimit="10" stroke-width="2"/>
      <line id="線_42" data-name="線 42" x1="9" transform="translate(17.877 15.461)" fill="none" stroke="#000" stroke-miterlimit="10" stroke-width="2"/>
      <path id="パス_41" data-name="パス 41" d="M3.818,23S1,32.44,1,36.949a8.6,8.6,0,0,0,8.455,8.595,8.6,8.6,0,0,0,8.453-8.595C17.908,32.44,15.09,23,15.09,23Z" transform="translate(-1 7.998)" fill="none" stroke="#000" stroke-miterlimit="10" stroke-width="2"/>
      <line id="線_43" data-name="線 43" y2="11" transform="translate(8.877 53.461)" fill="none" stroke="#000" stroke-miterlimit="10" stroke-width="2"/>
      <line id="線_44" data-name="線 44" x1="11" transform="translate(2.877 64.461)" fill="none" stroke="#000" stroke-miterlimit="10" stroke-width="2"/>
      <path id="パス_42" data-name="パス 42" d="M27.863,47.135H18V26h9.863" transform="translate(5.953 9.225)" fill="none" stroke="#000" stroke-miterlimit="10" stroke-width="2"/>
    </g>
  </g>
</svg>
