<svg xmlns="http://www.w3.org/2000/svg" width="62.59" height="59.785" viewBox="0 0 62.59 59.785">
  <g id="アートワーク_9" data-name="アートワーク 9" transform="translate(1.031 1.025)">
    <g id="アートワーク_9-2" data-name="アートワーク 9" transform="translate(0 0)">
      <line id="線_47" data-name="線 47" y2="25.362" transform="translate(36.606 32.398)" fill="none" stroke="#000" stroke-miterlimit="10" stroke-width="2"/>
      <line id="線_48" data-name="線 48" x1="25.362" transform="translate(23.925 57.761)" fill="none" stroke="#000" stroke-miterlimit="10" stroke-width="2"/>
      <path id="パス_49" data-name="パス 49" d="M10,7v4.227a8.454,8.454,0,0,0,8.454,8.454h1.409A5.636,5.636,0,0,1,25.5,25.317h0a5.636,5.636,0,0,0,5.636,5.636h5.636a5.636,5.636,0,0,0,5.636-5.636h0a5.636,5.636,0,0,1,5.636-5.636h1.409a8.454,8.454,0,0,0,8.454-8.454V7Z" transform="translate(2.653 1.445)" fill="none" stroke="#000" stroke-miterlimit="10" stroke-width="2"/>
      <path id="パス_50" data-name="パス 50" d="M17.9,25.655A12.681,12.681,0,1,1,24.24,6.634" transform="translate(-1.02 -1.006)" fill="none" stroke="#000" stroke-miterlimit="10" stroke-width="2"/>
    </g>
  </g>
</svg>
