<svg xmlns="http://www.w3.org/2000/svg" width="85.159" height="57.117" viewBox="0 0 85.159 57.117">
  <g id="グループ_21" data-name="グループ 21" transform="translate(-745.008 -1105.883)">
    <g id="アートワーク_13" data-name="アートワーク 13" transform="translate(1029.992 1372.083)">
      <g id="パス_63" data-name="パス 63" transform="translate(-284.984 -266.2)">
        <path d="M 51.50014495849609 56.0047607421875 L 31.47787857055664 56.0047607421875 L 31.03250694274902 55.65656280517578 C 29.95740127563477 54.79541015625 28.97758483886719 53.81200408935547 28.12035751342773 52.73371124267578 L 27.22895812988281 51.61244201660156 L 27.22896766662598 53.04486083984375 L 27.22897911071777 54.38212203979492 C 27.22897911071777 55.27685165405273 26.50105857849121 56.0047607421875 25.6063289642334 56.0047607421875 L 9.399948120117188 56.0047607421875 C 8.505218505859375 56.0047607421875 7.777308464050293 55.27685165405273 7.777308464050293 54.38212203979492 L 7.777308464050293 50.00948333740234 L 7.777308464050293 49.83162307739258 L 7.664988040924072 49.69372177124023 L 0.8619082570075989 41.34111404418945 C 0.470858246088028 40.85907363891602 0.3902782499790192 40.18432235717773 0.6572282314300537 39.62286376953125 C 0.9241782426834106 39.06139373779297 1.498388290405273 38.69796371459961 2.120078325271606 38.69696044921875 L 22.53910827636719 38.69696044921875 L 23.06878852844238 38.69696044921875 L 23.03827857971191 38.16816329956055 C 23.01026916503906 37.68274307250977 22.99665832519531 37.14364242553711 22.99665832519531 36.52008056640625 C 22.99665832519531 25.56006240844727 32.33324813842773 14.58315181732178 32.42755889892578 14.47355270385742 C 33.42428970336914 13.29225254058838 33.66527938842773 11.07294273376465 32.94642639160156 9.720521926879883 L 31.19604873657227 6.400102138519287 C 30.43102836608887 4.956132411956787 30.39463806152344 3.469052314758301 31.09572792053223 2.319262266159058 C 31.80071830749512 1.163102269172668 33.13443756103516 0.5000022649765015 34.75491714477539 0.5000022649765015 L 48.22308731079102 0.5000022649765015 C 49.86933898925781 0.5000022649765015 51.20603942871094 1.157742261886597 51.89043807983398 2.304582357406616 C 52.58368682861328 3.466232299804688 52.54798889160156 4.955182075500488 51.79249954223633 6.389662265777588 L 50.04139709472656 9.71141242980957 C 49.32334899902344 11.06233215332031 49.56433868408203 13.28164196014404 50.55792999267578 14.45924186706543 C 50.98712921142578 14.97185230255127 53.23478698730469 17.72174263000488 55.43622970581055 21.64278221130371 C 56.76854705810547 24.01580238342285 57.82759857177734 26.36226272583008 58.58395004272461 28.61699295043945 C 59.51823806762695 31.40215301513672 59.99197006225586 34.05757141113281 59.99197006225586 36.50946044921875 C 59.99197006225586 44.60133361816406 57.05875778198242 51.58049392700195 51.9444465637207 55.65741348266602 L 51.50014495849609 56.0047607421875 Z M 32.89165878295898 38.69696044921875 C 33.51395797729492 38.69696044921875 34.0889778137207 39.06001281738281 34.3565673828125 39.62187194824219 C 34.62044906616211 40.17937088012695 34.54082870483398 40.85132217407227 34.15321731567383 41.33266067504883 L 29.02879905700684 47.6241340637207 L 28.81777763366699 47.88321304321289 L 28.9764289855957 48.17729187011719 C 29.88371849060059 49.85906219482422 31.06582832336426 51.35788345336914 32.48991775512695 52.63210296630859 L 32.63227844238281 52.75948333740234 L 32.82331848144531 52.75948333740234 L 50.16531753540039 52.75948333740234 L 50.35434722900391 52.75948333740234 L 50.49609756469727 52.63443374633789 C 52.48674774169922 50.87829208374023 54.04414749145508 48.57034301757812 55.12503814697266 45.77469253540039 C 56.20108795166016 42.99157333374023 56.74668884277344 39.87430191040039 56.74668884277344 36.50946044921875 C 56.74668884277344 26.96193504333496 48.26269912719727 16.7698917388916 48.0791130065918 16.55616569519043 L 48.08427810668945 16.56211280822754 C 47.19772720336914 15.51743221282959 46.61457824707031 14.07932186126709 46.44222640991211 12.51270198822021 C 46.26971817016602 10.94450187683105 46.52763748168945 9.414502143859863 47.16847991943359 8.20454216003418 L 48.90716552734375 4.886229515075684 C 48.98859405517578 4.739537715911865 49.05262756347656 4.583248615264893 49.09753799438477 4.421572208404541 L 49.23712921142578 3.919062376022339 L 48.72918701171875 3.800772190093994 C 48.57068634033203 3.763862371444702 48.40780639648438 3.745142221450806 48.24508666992188 3.745142221450806 L 48.21634674072266 3.745342254638672 L 48.22308731079102 3.745292186737061 L 34.75492858886719 3.745292186737061 L 34.76166915893555 3.745342254638672 L 34.73292922973633 3.745142221450806 C 34.57021713256836 3.745142221450806 34.4073486328125 3.763862371444702 34.24883651733398 3.800772190093994 L 33.74088668823242 3.919052362442017 L 33.88047790527344 4.421572208404541 C 33.92536926269531 4.583178520202637 33.9893684387207 4.739405632019043 34.07074737548828 4.88604211807251 L 35.80819702148438 8.21262264251709 C 36.45037841796875 9.425112724304199 36.70829772949219 10.95511245727539 36.53578948974609 12.52331256866455 C 36.36343765258789 14.08993244171143 35.78028869628906 15.52804183959961 34.89373779296875 16.57272148132324 L 34.90056610107422 16.56485748291016 C 34.85238647460938 16.62088203430176 32.6866340637207 19.19827270507812 30.53735733032227 22.95345306396484 C 29.2900276184082 25.13278198242188 28.2957878112793 27.27397155761719 27.58227729797363 29.31754302978516 C 26.68585777282715 31.88498306274414 26.2313289642334 34.30826187133789 26.2313289642334 36.52008056640625 C 26.2313289642334 37.09410095214844 26.2495288848877 37.66905212402344 26.2854175567627 38.22895050048828 L 26.31542778015137 38.69696044921875 L 26.78439903259277 38.69696044921875 L 32.88699722290039 38.69697189331055 L 32.89165878295898 38.69696044921875 Z M 11.02258777618408 50.52009201049805 L 11.02258777618408 51.02009201049805 L 11.02258777618408 52.25948333740234 L 11.02258777618408 52.75948333740234 L 11.52258777618408 52.75948333740234 L 23.48368835449219 52.75948333740234 L 23.98368835449219 52.75948333740234 L 23.98368835449219 52.25948333740234 L 23.98368835449219 51.02009201049805 L 23.98368835449219 50.52009201049805 L 23.48368835449219 50.52009201049805 L 18.84563827514648 50.52009201049805 L 11.52258777618408 50.52009201049805 L 11.02258777618408 50.52009201049805 Z M 5.53782844543457 41.94225311279297 L 6.199188232421875 42.75730133056641 L 10.26404857635498 47.76674270629883 L 10.41576862335205 47.95371246337891 L 10.65653800964355 47.9516716003418 L 24.4537181854248 47.83492279052734 L 24.68869781494141 47.83293151855469 L 24.83712768554688 47.65075302124023 L 28.01047897338867 43.75570297241211 L 28.81825828552246 42.75661087036133 L 29.47668838500977 41.94225311279297 L 28.4294490814209 41.94225311279297 L 6.587448120117188 41.94225311279297 L 5.53782844543457 41.94225311279297 Z" stroke="none"/>
        <path d="M 51.32787322998047 55.5047607421875 L 51.63650512695312 55.26346969604492 C 56.62887573242188 51.28152847290039 59.49197006225586 44.44633483886719 59.49197006225586 36.50946044921875 C 59.49197006225586 34.11173248291016 59.0269775390625 31.50982284545898 58.10990905761719 28.77600288391113 C 57.36349868774414 26.55092239379883 56.31725692749023 24.23332214355469 55.00024795532227 21.8875617980957 C 52.82046890258789 18.00512313842773 50.59877777099609 15.2868824005127 50.17578887939453 14.78167247772217 C 49.04654693603516 13.4433126449585 48.78318786621094 11.01326274871826 49.59909820556641 9.478252410888672 L 51.3501091003418 6.156662464141846 C 52.02249908447266 4.879972457885742 52.06295013427734 3.569332361221313 51.46109008789062 2.56081223487854 C 50.86913681030273 1.568892240524292 49.68892669677734 1.000002264976501 48.22308731079102 1.000002264976501 L 34.75491714477539 1.000002264976501 C 33.31285858154297 1.000002264976501 32.13472747802734 1.575732231140137 31.52262878417969 2.579572200775146 C 30.91567802429199 3.574962377548218 30.9575080871582 4.881842136383057 31.63834762573242 6.166932106018066 L 33.3879280090332 9.485852241516113 C 34.20543670654297 11.02387237548828 33.94208908081055 13.45392227172852 32.81285858154297 14.79229259490967 L 32.80971908569336 14.79600238800049 L 32.80655670166016 14.7996826171875 C 32.71345901489258 14.90787220001221 23.49665832519531 25.74345207214355 23.49665832519531 36.52008056640625 C 23.49665832519531 37.13395309448242 23.5099983215332 37.66362380981445 23.53744888305664 38.13936233520508 L 23.59846878051758 39.19696044921875 L 22.53910827636719 39.19696044921875 L 2.120878219604492 39.19696044921875 C 1.690758228302002 39.19765090942383 1.29347825050354 39.44910049438477 1.108788251876831 39.83755111694336 C 0.9240982532501221 40.22600173950195 0.9798482656478882 40.69284057617188 1.249588251113892 41.02535247802734 L 8.052668571472168 49.37796401977539 L 8.277308464050293 49.65377044677734 L 8.277308464050293 50.00948333740234 L 8.277308464050293 54.38212203979492 C 8.277308464050293 55.00115203857422 8.780918121337891 55.5047607421875 9.399948120117188 55.5047607421875 L 25.6063289642334 55.5047607421875 C 26.2253589630127 55.5047607421875 26.72897911071777 55.00115203857422 26.72897911071777 54.38213348388672 L 26.72896766662598 53.04487228393555 L 26.72894859313965 50.18001174926758 L 28.51174736022949 52.42256164550781 C 29.34511756896973 53.47084045410156 30.29755783081055 54.42694091796875 31.34259796142578 55.26432037353516 L 31.65014266967773 55.5047607421875 L 51.32787322998047 55.5047607421875 M 33.7650032043457 41.01755142211914 C 34.03211212158203 40.68465042114258 34.08676147460938 40.22056579589844 33.90515899658203 39.83687210083008 C 33.72010803222656 39.44833374023438 33.32259368896484 39.19720840454102 32.89230728149414 39.19696426391602 L 32.88862991333008 39.19697189331055 L 32.88699722290039 39.19697189331055 L 26.78439903259277 39.19696044921875 L 25.84645843505859 39.19696044921875 L 25.78644752502441 38.26094055175781 C 25.74986839294434 37.69043350219727 25.7313289642334 37.10472106933594 25.7313289642334 36.52008056640625 C 25.7313289642334 34.25201416015625 26.19525909423828 31.77327156066895 27.11022758483887 29.1527214050293 C 27.83382797241211 27.08026313781738 28.84087753295898 24.91096305847168 30.10340881347656 22.70508193969727 C 32.19587326049805 19.04915428161621 34.31552505493164 16.48442077636719 34.51274108886719 16.24939918518066 L 34.51250839233398 16.24920272827148 C 35.33519744873047 15.27977180480957 35.87723922729492 13.93714237213135 36.03877639770508 12.46864223480225 C 36.20045852661133 10.99899196624756 35.96212005615234 9.57152271270752 35.3676872253418 8.449192047119141 L 35.36633682250977 8.44664192199707 L 35.36500930786133 8.444092750549316 L 33.63040542602539 5.122964382171631 C 33.53146362304688 4.943626403808594 33.45354461669922 4.752758026123047 33.39871978759766 4.555392265319824 L 33.11954879760742 3.550412178039551 L 34.13539886474609 3.313812255859375 C 34.33102798461914 3.268242359161377 34.53206634521484 3.245142221450806 34.73292922973633 3.245142221450806 L 34.75492858886719 3.245292186737061 L 48.22281265258789 3.245292186737061 L 48.24508666992188 3.245142221450806 C 48.44594955444336 3.245142221450806 48.64698791503906 3.268242359161377 48.84261703491211 3.313812255859375 L 49.85846710205078 3.550412178039551 L 49.57929992675781 4.555392265319824 C 49.52442932128906 4.752906322479248 49.44643020629883 4.943923950195312 49.34738540649414 5.123379230499268 L 47.61032867431641 8.438571929931641 C 47.01589965820312 9.56090259552002 46.77755737304688 10.98838233947754 46.93923950195312 12.45803260803223 C 47.10077667236328 13.92653274536133 47.64281845092773 15.26916217803955 48.46550750732422 16.23859214782715 L 48.46526718139648 16.23879623413086 C 48.66222763061523 16.47367095947266 50.77187728881836 19.02860832214355 52.87483978271484 22.70680236816406 C 54.13722991943359 24.9148120880127 55.1441764831543 27.08441162109375 55.86772918701172 29.15534210205078 C 56.78273773193359 31.77430152893066 57.24668884277344 34.24859237670898 57.24668884277344 36.50946044921875 C 57.24668884277344 39.93620300292969 56.68976974487305 43.11414337158203 55.59139633178711 45.95500183105469 C 54.48128890991211 48.82621383666992 52.87827682495117 51.19964218139648 50.82686996459961 53.00938415527344 L 50.54336929321289 53.25948333740234 L 50.16531753540039 53.25948333740234 L 32.82331848144531 53.25948333740234 L 32.44124984741211 53.25948333740234 L 32.15650939941406 53.00471115112305 C 30.6891975402832 51.69182205200195 29.47121810913086 50.14751052856445 28.5363883972168 48.41469192504883 L 28.21907806396484 47.82653045654297 L 28.64112854003906 47.3083610534668 L 33.7650032043457 41.01755142211914 M 10.52258777618408 50.02009201049805 L 11.52258777618408 50.02009201049805 L 18.84563827514648 50.02009201049805 L 23.48368835449219 50.02009201049805 L 24.48368835449219 50.02009201049805 L 24.48368835449219 51.02009201049805 L 24.48368835449219 52.25948333740234 L 24.48368835449219 53.25948333740234 L 23.48368835449219 53.25948333740234 L 11.52258777618408 53.25948333740234 L 10.52258777618408 53.25948333740234 L 10.52258777618408 52.25948333740234 L 10.52258777618408 51.02009201049805 L 10.52258777618408 50.02009201049805 M 4.488208293914795 41.44225311279297 L 6.587448120117188 41.44225311279297 L 28.4294490814209 41.44225311279297 L 30.52392768859863 41.44225311279297 L 29.20707893371582 43.07098388671875 L 28.39810752868652 44.0715217590332 L 25.22475814819336 47.96657180786133 L 24.92790794372559 48.3309326171875 L 24.45794868469238 48.33490371704102 L 10.66076850891113 48.45165252685547 L 10.17922782897949 48.45573043823242 L 9.875788688659668 48.08179092407227 L 5.810928344726562 43.07235336303711 L 4.488208293914795 41.44225311279297 M 51.67238998413086 56.5047607421875 L 31.30562782287598 56.5047607421875 L 30.72189903259277 56.04839324951172 C 29.61518859863281 55.16217041015625 28.61127853393555 54.15470123291016 27.72896766662598 53.04486083984375 L 27.72897911071777 54.38212203979492 C 27.72897911071777 55.5544319152832 26.77863883972168 56.5047607421875 25.6063289642334 56.5047607421875 L 9.399948120117188 56.5047607421875 C 8.22764778137207 56.5047607421875 7.277308464050293 55.5544319152832 7.277308464050293 54.38212203979492 L 7.277308464050293 50.00948333740234 L 0.4742282330989838 41.6568717956543 C -0.04108176380395889 41.02165222167969 -0.1455517560243607 40.1468620300293 0.2056682407855988 39.40816116333008 C 0.5568982362747192 38.66945266723633 1.301328182220459 38.19827270507812 2.119278192520142 38.19696044921875 L 22.53910827636719 38.19696044921875 C 22.50726890563965 37.64508056640625 22.49665832519531 37.08257293701172 22.49665832519531 36.52008056640625 C 22.49665832519531 25.53540229797363 31.65585899353027 14.60378265380859 32.04855728149414 14.14742183685303 C 32.90821838378906 13.12855243682861 33.13109970092773 11.13326263427734 32.50491714477539 9.955202102661133 L 30.75373840332031 6.633262157440186 C 29.90467834472656 5.030662059783936 29.87283897399902 3.364392280578613 30.6688289642334 2.058962345123291 C 31.46482849121094 0.7535423040390015 32.95067977905273 2.278442480019294e-06 34.75491714477539 2.278442480019294e-06 L 48.22308731079102 2.278442480019294e-06 C 50.02733993530273 2.278442480019294e-06 51.53442001342773 0.7323122620582581 52.31979751586914 2.048352241516113 C 53.10517883300781 3.364392280578613 53.07333755493164 5.030662059783936 52.23489761352539 6.622652053833008 L 50.48370742797852 9.944581985473633 C 49.85752868652344 11.12265205383301 50.08041000366211 13.11793231964111 50.94007873535156 14.13680267333984 C 51.32215881347656 14.59317207336426 60.49197006225586 25.52478218078613 60.49197006225586 36.50946044921875 C 60.49197006225586 44.75593185424805 57.48843002319336 51.87740325927734 52.25611877441406 56.04839324951172 L 51.67238998413086 56.5047607421875 Z M 32.89165878295898 38.19696807861328 C 33.71010208129883 38.19696807861328 34.45593643188477 38.66769790649414 34.80798721313477 39.4068717956543 C 35.15615844726562 40.14247131347656 35.0530891418457 41.01239395141602 34.54264831542969 41.64626312255859 L 29.41647911071777 47.93989181518555 C 30.2937183380127 49.56596374511719 31.4464282989502 51.02749252319336 32.82331848144531 52.25948333740234 L 50.16531753540039 52.25948333740234 C 54.03913879394531 48.84202194213867 56.24668884277344 43.15334320068359 56.24668884277344 36.50946044921875 C 56.24668884277344 27.09554290771484 47.78794860839844 16.98114204406738 47.70304870605469 16.8856315612793 C 45.73959732055664 14.5719518661499 45.30445861816406 10.65567207336426 46.72662734985352 7.970522403717041 L 48.46719741821289 4.648592472076416 C 48.53096008300781 4.534672260284424 48.58083724975586 4.413522243499756 48.61577987670898 4.287742137908936 C 48.49422836303711 4.259435176849365 48.36985397338867 4.245143890380859 48.24509048461914 4.245143890380859 C 48.23776245117188 4.245143890380859 48.23041915893555 4.245193481445312 48.22308731079102 4.245292186737061 L 34.75492858886719 4.245292186737061 C 34.74758911132812 4.245193481445312 34.74026107788086 4.245143890380859 34.73292541503906 4.245143890380859 C 34.60816955566406 4.245143890380859 34.48379135131836 4.259437084197998 34.36223983764648 4.287742137908936 C 34.39717864990234 4.413522243499756 34.44705963134766 4.534672260284424 34.51081848144531 4.648592472076416 L 36.25138854980469 7.981142044067383 C 37.67355728149414 10.66628265380859 37.23841857910156 14.58256244659424 35.27496719360352 16.89624214172363 C 35.19006729125977 16.99176216125488 26.7313289642334 27.07431221008301 26.7313289642334 36.52008056640625 C 26.7313289642334 37.08611297607422 26.7490177154541 37.64508056640625 26.78439903259277 38.19696044921875 L 32.88699722290039 38.19697189331055 C 32.88859939575195 38.19696807861328 32.89005661010742 38.19696807861328 32.89165878295898 38.19696807861328 Z M 11.52258777618408 51.02009201049805 L 11.52258777618408 52.25948333740234 L 23.48368835449219 52.25948333740234 L 23.48368835449219 51.02009201049805 L 18.84563827514648 51.02009201049805 L 11.52258777618408 51.02009201049805 Z M 6.587448120117188 42.44225311279297 L 10.65230846405029 47.45169067382812 L 24.44948768615723 47.33494186401367 L 27.62283897399902 43.43989181518555 L 28.4294490814209 42.44225311279297 L 6.587448120117188 42.44225311279297 Z" stroke="none" fill="#fff"/>
      </g>
    </g>
    <g id="アートワーク_10" data-name="アートワーク 10" transform="translate(814.53 1147.107)">
      <g id="アートワーク_10-2" data-name="アートワーク 10" transform="translate(-14.53 -14.893)">
        <path id="パス_64" data-name="パス 64" d="M26.527,30.786H4.732L1.1,1H29.433Z" transform="translate(-1.1 -1)" fill="#fff"/>
        <g id="グループ_18" data-name="グループ 18">
          <path id="パス_65" data-name="パス 65" d="M27.314,24.855l-4.214-4L27.459,16.5l4.068,4.214Z" transform="translate(-7.117 -5.239)" fill="none" stroke="#000" stroke-miterlimit="10" stroke-width="2"/>
          <path id="パス_66" data-name="パス 66" d="M14.1,10.652,19.621,8.4l2.252,5.449L16.425,16.1Z" transform="translate(-4.656 -3.024)" fill="none" stroke="#000" stroke-miterlimit="10" stroke-width="2"/>
          <path id="パス_67" data-name="パス 67" d="M16.45,31.632H13.544C5.335,31.632,5.48,29.526,4.1,28" transform="translate(-1.921 -8.385)" fill="none" stroke="#000" stroke-miterlimit="10" stroke-width="2"/>
          <path id="パス_68" data-name="パス 68" d="M15.63,30.786H25.8a1.453,1.453,0,0,0,1.453-1.308L30.159,1H1.1L4.006,29.478a1.453,1.453,0,0,0,1.453,1.308Z" transform="translate(-1.1 -1)" fill="none" stroke="#000" stroke-miterlimit="10" stroke-width="2"/>
          <path id="パス_69" data-name="パス 69" d="M21.1,31.632h2.906c8.282,0,8.064-2.107,9.444-3.632" transform="translate(-6.57 -8.385)" fill="none" stroke="#000" stroke-miterlimit="10" stroke-width="2"/>
          <line id="線_55" data-name="線 55" x2="7" transform="translate(1 6.786)" fill="none" stroke="#000" stroke-miterlimit="10" stroke-width="2"/>
          <line id="線_56" data-name="線 56" x2="10" transform="translate(18 6.786)" fill="none" stroke="#000" stroke-miterlimit="10" stroke-width="2"/>
        </g>
      </g>
    </g>
  </g>
</svg>
